<svg version="1.1" id="Layer_1" xmlns="http://www.w3.org/2000/svg" xmlns:xlink="http://www.w3.org/1999/xlink" x="0px" y="0px"
	 width="100%" viewBox="0 0 129 160" enable-background="new 0 0 129 160" xml:space="preserve">
<path fill="#010101" opacity="1.000000" stroke="none" 
	d="
M79.000000,161.000000 
	C52.689026,161.000000 26.878056,161.000000 1.033541,161.000000 
	C1.033541,107.735207 1.033541,54.470394 1.033541,1.102787 
	C43.894039,1.102787 86.788406,1.102787 129.841385,1.102787 
	C129.841385,54.332947 129.841385,107.666435 129.841385,161.000000 
	C113.137444,161.000000 96.318718,161.000000 79.000000,161.000000 
M43.271740,133.204422 
	C48.565041,136.326065 53.777348,139.600113 59.198517,142.481155 
	C60.938110,143.405640 63.323544,143.851303 65.246925,143.527267 
	C68.421623,142.992401 68.212700,140.177612 68.198387,137.594559 
	C68.133774,125.932907 68.156242,114.270660 68.187614,102.608742 
	C68.191589,101.133469 67.977272,99.405296 68.634735,98.222748 
	C75.957047,85.052437 83.431137,71.966507 91.023636,58.576778 
	C97.577026,62.336090 103.655441,66.029678 109.936295,69.339058 
	C113.096977,71.004417 114.351471,72.958115 114.269279,76.674171 
	C113.994057,89.118011 114.164833,101.571716 114.164833,114.410965 
	C117.588341,113.625168 119.432068,112.457413 119.377373,108.744118 
	C119.188469,95.918694 119.427834,83.086243 119.164352,70.263458 
	C119.127251,68.458099 117.642097,65.949142 116.080795,65.019714 
	C96.242386,53.210068 76.272446,41.621185 56.323772,29.997068 
	C50.932392,26.855503 45.500069,23.784210 39.898460,20.572840 
	C30.746988,36.600273 21.845572,52.147739 13.019544,67.737892 
	C12.404153,68.824905 12.071269,70.229225 12.074454,71.484810 
	C12.107833,84.642929 12.321612,97.801086 12.279354,110.958565 
	C12.268788,114.248222 13.650612,115.964256 16.406122,117.519173 
	C25.224819,122.495537 33.884026,127.754532 43.271740,133.204422 
M85.025238,103.269363 
	C85.025238,112.615471 85.025238,121.961578 85.025238,131.900040 
	C89.020470,129.585770 92.339920,127.765648 95.532784,125.745461 
	C96.393356,125.200951 97.423279,124.057617 97.436882,123.174713 
	C97.576347,114.124886 97.522339,105.072083 97.522339,95.208405 
	C92.874901,97.951431 89.060089,100.203011 85.025238,103.269363 
z"/>
<path fill="#FDFDFD" opacity="1.000000" stroke="none" 
	d="
M42.938267,133.054428 
	C33.884026,127.754532 25.224819,122.495537 16.406122,117.519173 
	C13.650612,115.964256 12.268788,114.248222 12.279354,110.958565 
	C12.321612,97.801086 12.107833,84.642929 12.074454,71.484810 
	C12.071269,70.229225 12.404153,68.824905 13.019544,67.737892 
	C21.845572,52.147739 30.746988,36.600273 39.898460,20.572840 
	C45.500069,23.784210 50.932392,26.855503 56.323772,29.997068 
	C76.272446,41.621185 96.242386,53.210068 116.080795,65.019714 
	C117.642097,65.949142 119.127251,68.458099 119.164352,70.263458 
	C119.427834,83.086243 119.188469,95.918694 119.377373,108.744118 
	C119.432068,112.457413 117.588341,113.625168 114.164833,114.410965 
	C114.164833,101.571716 113.994057,89.118011 114.269279,76.674171 
	C114.351471,72.958115 113.096977,71.004417 109.936295,69.339058 
	C103.655441,66.029678 97.577026,62.336090 91.023636,58.576778 
	C83.431137,71.966507 75.957047,85.052437 68.634735,98.222748 
	C67.977272,99.405296 68.191589,101.133469 68.187614,102.608742 
	C68.156242,114.270660 68.133774,125.932907 68.198387,137.594559 
	C68.212700,140.177612 68.421623,142.992401 65.246925,143.527267 
	C63.323544,143.851303 60.938110,143.405640 59.198517,142.481155 
	C53.777348,139.600113 48.565041,136.326065 42.938267,133.054428 
z"/>
<path fill="#F3F3F3" opacity="1.000000" stroke="none" 
	d="
M85.135254,102.861984 
	C89.060089,100.203011 92.874901,97.951431 97.522339,95.208405 
	C97.522339,105.072083 97.576347,114.124886 97.436882,123.174713 
	C97.423279,124.057617 96.393356,125.200951 95.532784,125.745461 
	C92.339920,127.765648 89.020470,129.585770 85.025238,131.900040 
	C85.025238,121.961578 85.025238,112.615471 85.135254,102.861984 
z"/>
</svg>